# xmcd
#
# Track frame offsets:
#	150
#	13781
#	45343
#	62291
#	75319
#	91193
#	108634
#	123633
#	138829
#	153936
#	169653
#	186022
#	198977
#	211484
#	230148
#	247199
#	262409
#	275622
#	292665
#	310060
#	328444
#
# Disc length: 4524 seconds
#
# Revision: 0
# Processed by: cddbd v1.5.2PL0 Copyright (c) Steve Scherf et al.
# Submitted via: dBpowerAMP V4.0
#
DISCID=2d11aa15
DTITLE=Various Artist - Afrikaners Is Plesierig
DYEAR=1900
DGENRE=Afrikaans
TTITLE0=Steve Hofmeyr - My Diefie My duifie
TTITLE1=Theuns Jordaan - Laslappie
TTITLE2=Karen Zoid - Afrikaners Is Plesierig
TTITLE3=Adam Tas - Lekker Ou Jan 
TTITLE4=Arno Jordaan - Vanaand Weer Ek En Jy
TTITLE5=Nadine - Tiekiedraai
TTITLE6=Dozi - Staan Net N Bietjie Stil
TTITLE7=Radio Kalahari Orkes - Kaptein Kaptein
TTITLE8=Leon Schuster - Gautengeleng
TTITLE9=Laura Lynn - Casanova
TTITLE10=Pieter Koen - Skud Jou Biscuit
TTITLE11=Natasha - Dis Als Verby
TTITLE12=Bles Bridges - Im The Eagle Youre The Wind
TTITLE13=Dona Winner - Droom Van My Geluk
TTITLE14=Danie Niehaus - Jy Is Vrou
TTITLE15=Irene Van Wyk - Lyne Van Jou Lyf
TTITLE16=Nico Booijse - Girl Van Mosselbaai
TTITLE17=Anneli Van Rooyen - Ek Lewe
TTITLE18=Nadine Blom - Vier Seisoen Kind
TTITLE19=Ringo Hugo - Ek Sien Vandag Die Son Weer Skyn
TTITLE20=Carike Keuzenkamp - Die Hondsalon
EXTD=
EXTT0=
EXTT1=
EXTT2=
EXTT3=
EXTT4=
EXTT5=
EXTT6=
EXTT7=
EXTT8=
EXTT9=
EXTT10=
EXTT11=
EXTT12=
EXTT13=
EXTT14=
EXTT15=
EXTT16=
EXTT17=
EXTT18=
EXTT19=
EXTT20=
PLAYORDER=
